<svg width="49" height="40" viewBox="0 0 49 40" fill="none" xmlns="http://www.w3.org/2000/svg">
<path d="M32.9209 27.8926L33.3809 28.6133C34.1471 29.8239 34.4692 30.8966 34.5918 32.6436C34.7298 34.498 35.0209 35.249 35.9405 36C36.6148 36.567 38.2542 37.2725 39.71 37.625C40.8441 37.9162 40.8294 37.8851 40.6455 39.2949L40.5381 40H32.0166L31.9707 35.7393C31.9094 30.7894 31.9095 30.7586 30.3311 29.0576C29.8115 28.5074 29.3988 28.018 29.3965 27.9697C29.3965 27.9238 30.1929 27.8926 31.1582 27.8926H32.9209ZM39.2969 0L40.8594 2.29883L42.4385 4.59766H20.0938L18.5303 6.94238C17.6874 8.22974 16.9825 9.33353 16.9825 9.41016C16.9846 9.56634 19.4645 13.1787 19.5723 13.1797C19.6183 13.1797 20.3541 12.1376 21.1817 10.8809L22.6992 8.58203H33.9014L45.1045 8.59766L46.6524 10.9268L48.2002 13.2568L39.4346 26.3447L28.293 26.3604H17.1358L16.3076 27.4785C14.7138 29.6241 13.6872 30.2376 11.6182 30.2529C10.4996 30.2682 10.1932 30.2066 9.39651 29.8389C8.89088 29.609 8.20092 29.3492 7.83304 29.2725C6.4231 28.9506 4.79814 29.7161 2.7139 31.6777C2.14849 32.2126 1.64424 32.6411 1.59573 32.6436C1.50378 32.6436 0.399474 31.9383 0.00100655 31.6318C-0.0759626 31.5461 4.28661 24.0722 4.39944 24.123C8.4914 26.4066 10.7909 27.6011 11.2813 27.6777C12.3846 27.8463 13.1204 27.3718 14.377 25.6709L15.4805 24.1836L11.8018 18.7129L8.12405 13.2412L12.5528 6.62109L16.9981 0H39.2969Z" fill="#FF3401"/>
</svg>
