<svg width="30" height="30" viewBox="0 0 30 30" fill="none" xmlns="http://www.w3.org/2000/svg">
<path d="M13.6957 24.7812L6.97018 20.75C6.68486 20.5833 6.46577 20.3542 6.31291 20.0625C6.16006 19.7708 6.08363 19.4583 6.08363 19.125V11.0938C6.08363 10.7604 6.16006 10.4479 6.31291 10.1562C6.46577 9.86458 6.68486 9.63542 6.97018 9.46875L13.7263 5.375C14.0116 5.20833 14.3275 5.125 14.674 5.125C15.0205 5.125 15.3364 5.20833 15.6217 5.375L22.3778 9.46875C22.6631 9.63542 22.8822 9.86458 23.0351 10.1562C23.1879 10.4479 23.2643 10.7604 23.2643 11.0938V19.125C23.2643 19.4583 23.1828 19.7708 23.0198 20.0625C22.8567 20.3542 22.6325 20.5833 22.3472 20.75L15.53 24.7812C15.2446 24.9479 14.9389 25.0312 14.6128 25.0312C14.2868 25.0312 13.9811 24.9479 13.6957 24.7812ZM1.2229 7.15625V4.75C1.2229 3.79167 1.55918 2.96875 2.23173 2.28125C2.90429 1.59375 3.70931 1.25 4.64681 1.25H7.00075V3.125H4.64681C4.19844 3.125 3.82141 3.28125 3.5157 3.59375C3.20999 3.90625 3.05714 4.29167 3.05714 4.75V7.15625H1.2229ZM4.64681 28.75C3.70931 28.75 2.90429 28.4062 2.23173 27.7188C1.55918 27.0312 1.2229 26.2083 1.2229 25.25V22.8438H3.05714V25.25C3.05714 25.7083 3.20999 26.0938 3.5157 26.4062C3.82141 26.7188 4.19844 26.875 4.64681 26.875H7.00075V28.75H4.64681ZM22.3472 28.625V26.75H24.7012C25.1495 26.75 25.5266 26.5938 25.8323 26.2812C26.138 25.9688 26.2908 25.5833 26.2908 25.125V22.7188H28.1251V25.125C28.1251 26.0833 27.7888 26.9062 27.1162 27.5938C26.4437 28.2813 25.6387 28.625 24.7012 28.625H22.3472ZM26.2908 7.15625V4.75C26.2908 4.29167 26.138 3.90625 25.8323 3.59375C25.5266 3.28125 25.1495 3.125 24.7012 3.125H22.3472V1.25H24.7012C25.6387 1.25 26.4437 1.59375 27.1162 2.28125C27.7888 2.96875 28.1251 3.79167 28.1251 4.75V7.15625H26.2908ZM8.86556 10.5L7.94844 11.0625V12.2188L13.7569 15.625V22.625L14.674 23.1875L15.5911 22.625V15.625L21.4301 12.2188V11.0625L20.4824 10.5L14.674 13.9375L8.86556 10.5Z" fill="#ACB3C5"/>
</svg>
