<svg width="90" height="90" viewBox="0 0 90 90" fill="none" xmlns="http://www.w3.org/2000/svg">
<circle cx="45" cy="45" r="45" fill="#EFFDF4"/>
<path d="M38.8812 63.8992L35.4612 58.1392L28.9812 56.6992L29.6112 50.0392L25.2012 44.9992L29.6112 39.9592L28.9812 33.2992L35.4612 31.8592L38.8812 26.0992L45.0012 28.7092L51.1212 26.0992L54.5412 31.8592L61.0212 33.2992L60.3912 39.9592L64.8012 44.9992L60.3912 50.0392L61.0212 56.6992L54.5412 58.1392L51.1212 63.8992L45.0012 61.2892L38.8812 63.8992ZM43.1112 51.3892L53.2812 41.2192L50.7612 38.6092L43.1112 46.2592L39.2412 42.4792L36.7212 44.9992L43.1112 51.3892Z" fill="#1A5656"/>
</svg>
