<svg width="260" height="40" viewBox="0 0 260 40" fill="none" xmlns="http://www.w3.org/2000/svg">
<path d="M32.9209 27.8926L33.3809 28.6133C34.1471 29.8239 34.4692 30.8966 34.5918 32.6436C34.7298 34.498 35.0209 35.249 35.9405 36C36.6148 36.567 38.2542 37.2725 39.71 37.625C40.8441 37.9162 40.8294 37.8851 40.6455 39.2949L40.5381 40H32.0166L31.9707 35.7393C31.9094 30.7894 31.9095 30.7586 30.3311 29.0576C29.8115 28.5074 29.3988 28.018 29.3965 27.9697C29.3965 27.9238 30.1929 27.8926 31.1582 27.8926H32.9209ZM39.2969 0L40.8594 2.29883L42.4385 4.59766H20.0938L18.5303 6.94238C17.6874 8.22974 16.9825 9.33353 16.9825 9.41016C16.9846 9.56634 19.4645 13.1787 19.5723 13.1797C19.6183 13.1797 20.3541 12.1376 21.1817 10.8809L22.6992 8.58203H33.9014L45.1045 8.59766L46.6524 10.9268L48.2002 13.2568L39.4346 26.3447L28.293 26.3604H17.1358L16.3076 27.4785C14.7138 29.6241 13.6872 30.2376 11.6182 30.2529C10.4996 30.2682 10.1932 30.2066 9.39651 29.8389C8.89088 29.609 8.20092 29.3492 7.83304 29.2725C6.4231 28.9506 4.79814 29.7161 2.7139 31.6777C2.14849 32.2126 1.64424 32.6411 1.59573 32.6436C1.50378 32.6436 0.399474 31.9383 0.00100655 31.6318C-0.0759626 31.5461 4.28661 24.0722 4.39944 24.123C8.4914 26.4066 10.7909 27.6011 11.2813 27.6777C12.3846 27.8463 13.1204 27.3718 14.377 25.6709L15.4805 24.1836L11.8018 18.7129L8.12405 13.2412L12.5528 6.62109L16.9981 0H39.2969Z" fill="#FF3401"/>
<path d="M70.9248 12.7576C70.9248 18.8105 70.9541 18.9582 71.707 17.659C73.5082 14.5885 78.5713 13.998 81.332 16.5369C82.5869 17.6885 83.3846 19.1944 83.7832 21.1727C84.0194 22.339 84.0194 25.956 83.7832 27.078C82.9713 30.9458 80.8895 33.0121 77.4941 33.3075C75.0878 33.4994 72.7848 32.4221 71.707 30.5916C71.1903 29.7058 70.9248 29.7501 70.9248 30.7244C70.9248 31.1525 70.8802 31.8609 70.8359 32.2742L70.7324 33.0565H66.2002V7.22151H70.9248V12.7576ZM142.51 15.1942L142.569 20.9071C142.628 26.9008 142.658 27.2404 143.308 28.2C144.518 30.001 147.825 29.7942 149.124 27.8455C149.39 27.4469 149.67 26.8859 149.759 26.5907C149.847 26.2654 149.906 23.8594 149.906 20.6121V15.1942H154.778V33.0575H150.246L150.143 32.4959C150.098 32.2006 150.054 31.4624 150.054 30.8719C150.054 30.0165 150.01 29.8097 149.818 29.8094C149.7 29.8094 149.508 30.031 149.39 30.2967C149.05 31.1233 148.032 32.1269 147.058 32.6141C143.869 34.179 139.765 32.9828 138.51 30.1483C137.86 28.6721 137.816 28.0077 137.801 21.4237V15.1942H142.51ZM93.335 15.0457C94.457 14.8391 96.8632 14.9864 98.0146 15.3407C100.938 16.2412 102.916 18.3969 103.64 21.4676C103.979 22.9585 103.949 25.5713 103.565 27.0477C102.798 29.9855 100.982 31.935 98.1914 32.8651C97.1289 33.2045 96.7449 33.2488 95.0625 33.2489C93.3797 33.2489 92.9952 33.2045 91.9473 32.8651C89.1128 31.9202 87.2669 29.9565 86.4697 26.9891C86.1154 25.6751 86.1153 22.5746 86.4844 21.2459C87.4293 17.7915 89.7329 15.6953 93.335 15.0457ZM111.301 17.9246C112.275 19.4157 113.147 20.6551 113.221 20.6551C113.311 20.6513 114.167 19.4134 115.14 17.9246L116.911 15.1932H119.612C121.737 15.1932 122.299 15.2373 122.211 15.37C122.152 15.4733 120.853 17.3783 119.317 19.578C117.798 21.7909 116.544 23.6794 116.542 23.7703C116.542 23.8589 117.959 25.9409 119.687 28.3768C121.398 30.8115 122.844 32.8627 122.86 32.9383C122.89 32.9974 121.665 33.0565 120.13 33.0565H117.339L115.287 30.0301C114.165 28.3619 113.161 27.0037 113.072 27.0037C112.993 27.0064 112.401 27.753 111.619 28.8162L109.949 31.1248C109.167 32.1974 108.577 32.9757 108.511 32.9979C108.405 33.042 107.196 33.0419 105.795 33.0272L103.271 32.9823L106.577 28.45L109.898 23.9178L106.976 19.7401C105.366 17.4371 103.994 15.4733 103.935 15.37C103.847 15.2372 104.438 15.1932 106.681 15.1932H109.529L111.301 17.9246ZM131.999 6.85237C132.899 6.63103 136.086 6.601 136.442 6.8221C136.56 6.91068 136.62 7.47229 136.62 8.75667V10.5575L135.291 10.4989C132.619 10.3661 131.718 11.1926 131.512 13.9237L131.408 15.1932H136.029V19.0321H131.453V33.0565H126.729V19.0321L124.293 19.0018L121.857 18.9578L123.142 17.0828L124.44 15.2078L125.562 15.1932H126.685L126.773 13.5252C126.862 11.68 127.171 10.5871 127.895 9.52425C128.795 8.22515 130.213 7.31004 131.999 6.85237ZM163.046 33.0565H158.322V7.22151H163.046V33.0565ZM75.959 18.8992C75.1028 18.7221 75.0876 18.7222 74.2168 18.8846C73.331 19.0618 72.799 19.3719 72.1494 20.1248C71.3082 21.0843 71.0723 21.9553 71.0723 24.1102C71.0723 26.9445 71.6181 28.2293 73.168 28.9823C75.2937 30.0304 77.5827 29.3517 78.498 27.4032C79.4724 25.3511 79.3097 21.9553 78.1582 20.2723C77.6416 19.5342 76.9774 19.1207 75.959 18.8992ZM95.0625 18.8846C93.1729 18.8846 91.9914 19.7552 91.3418 21.5858C91.1351 22.1762 91.0762 22.7963 91.0762 24.2723C91.0762 26.0733 91.1054 26.251 91.5039 27.1219C92.2273 28.6868 93.3201 29.41 94.9883 29.41C96.1397 29.41 96.9219 29.1001 97.6748 28.3768C98.7525 27.3286 99.255 25.2466 98.9893 23.0174C98.7382 21.0394 97.9698 19.7701 96.6855 19.1649C96.2871 18.9878 95.756 18.8846 95.0625 18.8846Z" fill="#FF3401"/>
</svg>
